<svg width="22" height="22" viewBox="0 0 22 22" fill="none" xmlns="http://www.w3.org/2000/svg">
<g id="Frame">
<path id="Vector" d="M15.3622 1.80713H6.32645C3.83131 1.80713 1.80859 3.82984 1.80859 6.32499V15.3607C1.80859 17.8558 3.83131 19.8786 6.32645 19.8786H15.3622C17.8573 19.8786 19.88 17.8558 19.88 15.3607V6.32499C19.88 3.82984 17.8573 1.80713 15.3622 1.80713Z" stroke="#717171" stroke-width="1.41429" stroke-linecap="round" stroke-linejoin="round"/>
<path id="Vector_2" d="M14.4551 10.2736C14.5666 11.0256 14.4382 11.7936 14.088 12.4684C13.7379 13.1432 13.1839 13.6904 12.5049 14.0321C11.8258 14.3739 11.0563 14.4929 10.3057 14.3721C9.55515 14.2513 8.86178 13.897 8.32423 13.3594C7.78667 12.8219 7.43231 12.1285 7.31153 11.3779C7.19076 10.6274 7.30972 9.85785 7.65151 9.1788C7.99329 8.49974 8.5405 7.94575 9.21528 7.59562C9.89007 7.24549 10.6581 7.11704 11.4101 7.22855C12.1771 7.3423 12.8873 7.69973 13.4356 8.24806C13.9839 8.79638 14.3414 9.50652 14.4551 10.2736Z" stroke="#717171" stroke-width="1.41429" stroke-linecap="round" stroke-linejoin="round"/>
<path id="Vector_3" d="M15.8125 5.87305H15.8218" stroke="#717171" stroke-width="1.41429" stroke-linecap="round" stroke-linejoin="round"/>
</g>
</svg>
