<svg width="20" height="42" viewBox="0 0 20 42" fill="none" xmlns="http://www.w3.org/2000/svg">
<rect width="20" height="42" fill="#9E9E9E"/>
<g id="Section 8">
<path d="M-2670 -3001C-2670 -3002.1 -2669.1 -3003 -2668 -3003H11081C11082.1 -3003 11083 -3002.1 11083 -3001V9376C11083 9377.1 11082.1 9378 11081 9378H-2668C-2669.1 9378 -2670 9377.1 -2670 9376V-3001Z" fill="#5A5A5A"/>
<path d="M-2668 -3002H11081V-3004H-2668V-3002ZM11082 -3001V9376H11084V-3001H11082ZM11081 9377H-2668V9379H11081V9377ZM-2669 9376V-3001H-2671V9376H-2669ZM-2668 9377C-2668.55 9377 -2669 9376.55 -2669 9376H-2671C-2671 9377.66 -2669.66 9379 -2668 9379V9377ZM11082 9376C11082 9376.55 11081.6 9377 11081 9377V9379C11082.7 9379 11084 9377.66 11084 9376H11082ZM11081 -3002C11081.6 -3002 11082 -3001.55 11082 -3001H11084C11084 -3002.66 11082.7 -3004 11081 -3004V-3002ZM-2668 -3004C-2669.66 -3004 -2671 -3002.66 -2671 -3001H-2669C-2669 -3001.55 -2668.55 -3002 -2668 -3002V-3004Z" fill="white" fill-opacity="0.1"/>
<g id="LP PROFIV DESKTOP" clip-path="url(#clip0_1_3)">
<rect width="1280" height="5724" transform="translate(-686 -2325)" fill="white"/>
<g id="Frame 1000007257">
<g id="Frame 1000007253">
<g id="Frame 1000007222">
<rect width="1282" height="1021" transform="translate(-686 -287)" fill="white"/>
<g id="Frame 1000007200">
<g id="Frame 1000007201">
<g id="Frame 1000007259">
<g id="Frame 1000007202">
<g id="Frame 1000007250">
<rect x="-31" y="-35" width="527" height="112" rx="3" fill="#EEFCFF"/>
<g id="Group 5056">
<path id="Vector" d="M3.85547 6.71426C3.85547 8.22978 4.45756 9.68322 5.52918 10.7549C6.60079 11.8265 8.05431 12.4285 9.56973 12.4285C11.0852 12.4285 12.5387 11.8265 13.6103 10.7549C14.6819 9.68322 15.284 8.22978 15.284 6.71426C15.284 5.19875 14.6819 3.7453 13.6103 2.67367C12.5387 1.60204 11.0852 1 9.56973 1C8.05431 1 6.60079 1.60204 5.52918 2.67367C4.45756 3.7453 3.85547 5.19875 3.85547 6.71426Z" stroke="#00B0D8" stroke-width="1.87" stroke-linecap="round" stroke-linejoin="round"/>
<path id="Vector_2" d="M14.5428 16.8975L9.57139 23.8574L4.59999 16.8975C3.48818 17.6864 2.58133 18.7296 1.95524 19.9405C1.32895 21.1511 1.00133 22.4942 1 23.8574V29.5717C1 30.3294 1.30095 31.0562 1.83676 31.592C2.37257 32.1279 3.09942 32.4288 3.85713 32.4288H5.2857V38.1431C5.2857 38.9008 5.58665 39.6276 6.12246 40.1634C6.65826 40.6992 7.38512 41.0002 8.14283 41.0002H11C11.7577 41.0002 12.4845 40.6992 13.0203 40.1634C13.5561 39.6276 13.8571 38.9008 13.8571 38.1431V32.4288H15.2857C16.0434 32.4288 16.7702 32.1279 17.306 31.592C17.8418 31.0562 18.1428 30.3294 18.1428 29.5717V23.8574C18.1415 22.4942 17.8138 21.1511 17.1876 19.9405C16.5615 18.7296 15.6546 17.6864 14.5428 16.8975Z" stroke="#00B0D8" stroke-width="1.87" stroke-linecap="round" stroke-linejoin="round"/>
</g>
</g>
</g>
</g>
</g>
</g>
</g>
</g>
</g>
</g>
</g>
<defs>
<clipPath id="clip0_1_3">
<rect width="1280" height="5724" fill="white" transform="translate(-686 -2325)"/>
</clipPath>
</defs>
</svg>
