<svg width="20" height="42" viewBox="0 0 20 42" fill="none" xmlns="http://www.w3.org/2000/svg">
<g id="Group 5056">
<path id="Vector" d="M3.85547 6.71426C3.85547 8.22978 4.45756 9.68322 5.52918 10.7549C6.60079 11.8265 8.05431 12.4285 9.56973 12.4285C11.0852 12.4285 12.5387 11.8265 13.6103 10.7549C14.6819 9.68322 15.284 8.22978 15.284 6.71426C15.284 5.19875 14.6819 3.7453 13.6103 2.67367C12.5387 1.60204 11.0852 1 9.56973 1C8.05431 1 6.60079 1.60204 5.52918 2.67367C4.45756 3.7453 3.85547 5.19875 3.85547 6.71426Z" stroke="#0FB2AB" stroke-width="1.87" stroke-linecap="round" stroke-linejoin="round"/>
<path id="Vector_2" d="M14.5428 16.8975L9.57139 23.8574L4.59999 16.8975C3.48818 17.6864 2.58133 18.7296 1.95524 19.9405C1.32895 21.1511 1.00133 22.4942 1 23.8574V29.5717C1 30.3294 1.30095 31.0562 1.83676 31.592C2.37257 32.1279 3.09942 32.4288 3.85713 32.4288H5.2857V38.1431C5.2857 38.9008 5.58665 39.6276 6.12246 40.1634C6.65826 40.6992 7.38512 41.0002 8.14283 41.0002H11C11.7577 41.0002 12.4845 40.6992 13.0203 40.1634C13.5561 39.6276 13.8571 38.9008 13.8571 38.1431V32.4288H15.2857C16.0434 32.4288 16.7702 32.1279 17.306 31.592C17.8418 31.0562 18.1428 30.3294 18.1428 29.5717V23.8574C18.1415 22.4942 17.8138 21.1511 17.1876 19.9405C16.5615 18.7296 15.6546 17.6864 14.5428 16.8975Z" stroke="#0FB2AB" stroke-width="1.87" stroke-linecap="round" stroke-linejoin="round"/>
</g>
</svg>
