<svg width="41" height="40" viewBox="0 0 41 40" fill="none" xmlns="http://www.w3.org/2000/svg">
<g id="Frame">
<path id="Vector" d="M35.9346 20.0003C35.9346 24.0935 34.3086 28.019 31.4143 30.9133C28.52 33.8076 24.5945 35.4337 20.5013 35.4337C16.4081 35.4337 12.4826 33.8076 9.58829 30.9133C6.69398 28.019 5.06797 24.0935 5.06797 20.0003C5.06797 15.9072 6.69398 11.9816 9.58829 9.08731C12.4826 6.193 16.4081 4.56699 20.5013 4.56699C24.5945 4.56699 28.52 6.193 31.4143 9.08731C34.3086 11.9816 35.9346 15.9072 35.9346 20.0003Z" stroke="#6A68CE" stroke-width="0.8"/>
<g id="Group 5004">
<g id="Vector_2">
<path d="M18.3259 23.5508L16.7259 21.9508C16.5211 22.4401 16.4779 22.9819 16.6025 23.4975L17.1692 25.9575C17.2074 26.1237 17.1937 26.2976 17.1299 26.4558C17.0662 26.614 16.9554 26.7488 16.8125 26.8421C16.6697 26.9353 16.5017 26.9824 16.3312 26.9771C16.1607 26.9718 15.996 26.9144 15.8592 26.8125L15.4542 26.5091L14.1875 27.6781C14.1875 27.6781 14.3218 27.7435 14.4559 27.8441L14.8609 28.1475C16.7259 29.5425 19.3175 27.8525 18.7942 25.5841L18.3259 23.5508Z" fill="#6A68CE"/>
<path d="M23.4309 17.9662L21.8309 16.3662C21.6261 16.8555 21.5829 17.3973 21.7075 17.9129L22.2742 20.3729C22.3124 20.5391 22.2987 20.7131 22.2349 20.8712C22.1712 21.0294 22.0604 21.1642 21.9175 21.2575C21.7747 21.3507 21.6067 21.3978 21.4362 21.3925C21.2657 21.3873 21.101 21.3298 20.9642 21.2279L20.5592 20.9245C18.7392 19.5629 16.1942 21.1412 16.6025 23.3745L16.8192 24.5579L18.4575 24.2579L18.2409 23.0762C18.2106 22.9113 18.2309 22.7411 18.2989 22.5879C18.3669 22.4347 18.4795 22.3055 18.6221 22.2173C18.7647 22.1291 18.9305 22.0859 19.098 22.0935C19.2655 22.101 19.4268 22.1589 19.5609 22.2595L19.9659 22.5629C21.8309 23.9579 24.4225 22.2679 23.8992 19.9995L23.4309 17.9662Z" fill="#6A68CE"/>
</g>
<path id="Vector_3" fill-rule="evenodd" clip-rule="evenodd" d="M22.4114 17.8948C22.6747 17.4465 23.6888 19.0866 23.6888 19.0866L23.4438 17.3116C24.4854 17.4 25.6638 16.9616 26.5804 16.0466C28.0454 14.5816 28.2821 12.4433 27.1104 11.2716C25.9388 10.0983 23.7988 10.3366 22.3338 11.8016C20.9438 13.1916 20.6588 15.1883 21.6338 16.39L22.0421 17.4826L22.4114 17.8948ZM23.5121 12.98C24.5871 11.9066 25.6421 12.16 25.9321 12.45C26.2221 12.7383 26.4754 13.795 25.4004 14.8683C24.3271 15.9416 23.2721 15.6883 22.9821 15.4C22.6921 15.11 22.4388 14.0533 23.5121 12.98Z" fill="#6A68CE"/>
</g>
</g>
</svg>
