<svg width="23" height="20" viewBox="0 0 23 34" fill="none" xmlns="http://www.w3.org/2000/svg">
<path id="Vector" d="M19.206 32.9999H18.8798L11.4036 23.3277L3.92742 32.9999H3.6661L0.921875 26.8264L7.77064 17.9853C6.35007 14.6117 4.8378 10.982 5.59033 7.24549C5.88898 5.76138 7.13338 3.01519 8.3077 2.05701C10.3269 0.40982 13.8538 0.692101 15.3811 2.87373C17.2962 5.60878 17.9131 8.45911 17.2025 11.7456C16.7506 13.8349 16.0033 15.8606 15.106 17.7921L22.0806 26.8271L19.2053 32.9999H19.206ZM14.5696 6.92129C14.9521 5.04029 15.8317 3.51426 13.8066 2.29344C12.3703 1.42761 10.6688 1.40599 9.2148 2.24694C7.136 3.45008 8.05751 5.03112 8.43279 6.92129C10.4075 6.28403 12.5937 6.28403 14.569 6.92129H14.5696ZM7.19298 4.7639C6.04355 7.00709 5.77699 9.23784 6.29833 11.7044C6.70046 13.6063 7.37506 15.5902 8.26971 17.312C8.57885 16.8784 11.067 13.9181 11.0467 13.6908C11.0369 13.5795 10.0178 12.0803 9.85796 11.8019C9.05499 10.4049 8.38367 8.89137 7.90884 7.34766C7.66716 6.56042 7.55189 5.68475 7.31677 4.93419C7.29384 4.86149 7.2945 4.77634 7.19298 4.76521V4.7639ZM15.8095 4.82939C15.6365 4.81237 15.704 4.82677 15.6811 4.92698C14.8133 8.66214 13.8053 11.1391 11.5274 14.2344L1.65214 26.9024L3.89467 32.0195L12.3389 21.0609C14.4288 18.1752 15.9535 14.7584 16.6386 11.2472C17.0787 8.99092 16.8089 6.89378 15.8095 4.83005V4.82939ZM14.309 7.50943C12.4823 6.96779 10.5214 6.96714 8.69346 7.50943C9.23379 9.54435 10.3308 11.3638 11.437 13.1295L11.5719 13.0889C12.7063 11.3553 13.7575 9.5247 14.309 7.50943ZM19.0095 32.0195L21.3516 26.903L14.7019 18.4903C13.9501 20.0543 12.8504 21.4028 11.8555 22.8077L19.0095 32.0195Z" fill="#0FB2AB" stroke="#0FB2AB"/>
</svg>
