<svg width="40" height="40" viewBox="0 0 40 40" fill="none" xmlns="http://www.w3.org/2000/svg">
<g clip-path="url(#clip0_6705_7013)">
<path d="M14.1511 40C13.3206 39.8612 12.4714 39.7892 11.6608 39.5732C6.00105 38.0644 2.22755 34.5137 0.589615 28.8919C-1.78695 20.7356 3.25413 12.1734 11.5179 10.1262C12.0541 9.9937 12.4662 10.1846 12.5883 10.6218C12.7228 11.1039 12.4579 11.4879 11.8914 11.6412C7.50336 12.8318 4.36208 15.4966 2.59687 19.6859C-0.3149 26.5985 3.16858 34.7402 10.1522 37.4707C18.0696 40.5655 26.7705 35.8837 28.4835 27.5594C29.2545 23.8126 28.5054 20.3245 26.3761 17.14C26.3125 17.044 26.2363 16.9553 26.1873 16.8906C24.9155 18.1667 23.6521 19.4344 22.3491 20.7418C22.8217 20.9787 23.3256 21.2395 23.8357 21.4837C24.0809 21.6016 24.348 21.6757 24.5921 21.7946C25.8472 22.4092 26.5566 23.4056 26.5702 24.8163C26.6286 30.6427 22.0914 35.6542 16.296 36.1863C10.1324 36.7529 4.71262 32.4728 3.86235 26.3668C2.98496 20.0626 7.5597 14.1965 13.9028 13.5089C14.4943 13.4453 15.1088 13.391 15.6909 13.4787C16.945 13.6665 17.8025 14.4167 18.2908 15.5874C18.5046 16.0997 18.7258 16.6079 18.9334 17.092C20.1666 15.8608 21.3674 14.6619 22.5849 13.4463C21.6741 12.8265 20.6392 12.3351 19.5469 11.9595C19.2641 11.8624 18.9752 11.7852 18.6872 11.7049C18.0279 11.5233 17.7545 11.178 17.8839 10.6824C18.0143 10.1836 18.4316 10.0114 19.0795 10.1857C20.6486 10.6083 22.1144 11.2583 23.4716 12.1546C23.5687 12.2182 23.6688 12.2788 23.7356 12.3205C24.5984 11.4566 25.4486 10.6051 26.3292 9.72242C25.8586 9.25706 25.3579 8.7677 24.8634 8.27104C24.3897 7.7942 24.3939 7.41127 24.8738 6.92818C25.5519 6.24475 26.2342 5.56445 26.9134 4.88101C26.9311 4.86328 26.9426 4.83823 26.9781 4.78398C26.9103 4.68172 26.832 4.56799 26.759 4.45113C25.9838 3.20844 25.8858 1.9167 26.5023 0.58427C26.7433 0.0625668 27.1721 -0.122116 27.5999 0.0803047C28.0297 0.282725 28.1486 0.721999 27.916 1.24057C27.4601 2.25685 27.6228 3.2147 28.4063 4.00038C30.8528 6.4503 33.3013 8.89813 35.7551 11.3418C36.572 12.1556 37.6695 12.3017 38.6523 11.7477C39.2814 11.3929 39.6256 11.4858 40.0002 12.1118V12.5803C39.8468 12.7326 39.7154 12.9184 39.537 13.0311C38.6523 13.5955 37.6862 13.7531 36.6586 13.5507C35.9439 13.4098 35.3305 13.0624 34.7661 12.5751C34.0754 13.269 33.4077 13.943 32.738 14.6149C32.1235 15.2306 31.7949 15.2264 31.1731 14.6056C30.7078 14.1402 30.2414 13.6759 29.8471 13.2836C28.9905 14.1381 28.1674 14.9603 27.3338 15.7919C27.3463 15.8107 27.3902 15.8743 27.435 15.938C29.8919 19.4219 30.7923 23.2669 30.0881 27.476C29.1022 33.3733 24.445 38.294 18.5964 39.6035C17.8015 39.7819 16.9867 39.8716 16.1802 40.0031H14.15L14.1511 40ZM21.0575 21.8677C21.0168 21.9157 20.9323 22.0325 20.8311 22.1337C19.7649 23.2032 18.6945 24.2675 17.6314 25.3401C17.3602 25.6145 17.0566 25.7554 16.6841 25.6093C16.3096 25.4622 16.1844 25.1492 16.1855 24.7631C16.1896 23.318 16.1719 21.8729 16.2011 20.4288C16.2063 20.1711 16.343 19.8727 16.512 19.6702C16.8615 19.2529 17.2809 18.894 17.6533 18.4943C17.7284 18.414 17.7879 18.2356 17.7504 18.1479C17.4405 17.4332 17.1181 16.7237 16.7739 16.0256C16.4484 15.3641 15.909 14.9812 15.1589 15.001C14.5757 15.0167 13.9883 15.0594 13.4145 15.1565C8.04586 16.0601 4.37042 21.4962 5.52428 26.8092C6.62284 31.8708 11.1131 35.1325 16.2741 34.6191C21.1608 34.1329 25.0439 29.8048 25.0115 24.881C25.0063 24.0964 24.6338 23.5455 23.9369 23.2137C23.0126 22.7744 22.0831 22.3466 21.0565 21.8677H21.0575ZM33.5809 11.4712C31.7479 9.63999 29.9097 7.80464 28.1215 6.01728C27.5853 6.55046 27.0282 7.10451 26.4982 7.63248C28.3124 9.43861 30.1517 11.2708 31.9743 13.0853C32.497 12.5605 33.0436 12.0117 33.582 11.4712H33.5809ZM20.9814 19.6828C23.5478 17.117 26.0767 14.5889 28.5858 12.0795C28.2217 11.7195 27.8367 11.3376 27.4935 10.9985C24.9948 13.4985 22.4785 16.0162 19.9287 18.5674C20.2688 18.9284 20.6402 19.3217 20.9803 19.6838L20.9814 19.6828ZM17.7504 22.8954C18.4754 22.1838 19.1775 21.4941 19.8818 20.8044C19.526 20.4298 19.1525 20.0365 18.7248 19.5857C18.4233 19.9092 18.127 20.218 17.8453 20.5394C17.7848 20.6083 17.7545 20.7262 17.7535 20.8211C17.7462 21.5098 17.7493 22.1984 17.7493 22.8954H17.7504Z" fill="#EB526E"/>
<path d="M16.0889 10.4528C16.0909 10.8701 15.7373 11.2332 15.3283 11.2343C14.9131 11.2343 14.5469 10.8868 14.5354 10.4809C14.524 10.0437 14.8724 9.69212 15.3189 9.68899C15.7425 9.68586 16.0868 10.027 16.0889 10.4528Z" fill="#EB526E"/>
<path d="M7.82138 24.62C7.82869 22.8284 9.29031 21.3896 11.092 21.399C12.8875 21.4084 14.322 22.8639 14.3126 24.669C14.3032 26.4626 12.8437 27.9025 11.043 27.8942C9.25379 27.8858 7.81304 26.4219 7.82034 24.621L7.82138 24.62ZM11.066 22.961C10.1281 22.961 9.38212 23.7091 9.38316 24.6471C9.38316 25.583 10.1343 26.3322 11.0701 26.3312C12.0059 26.3312 12.7529 25.5799 12.7519 24.6429C12.7519 23.7039 12.0059 22.9599 11.066 22.961Z" fill="#EB526E"/>
<path d="M20.7789 27.7245C20.7831 28.1481 20.4451 28.5081 20.0309 28.5195C19.5907 28.5321 19.2255 28.1804 19.2266 27.7453C19.2276 27.328 19.5792 26.9722 19.9944 26.9659C20.4107 26.9596 20.7748 27.3123 20.7789 27.7245Z" fill="#EB526E"/>
<path d="M15.1606 31.3476C14.7328 31.3403 14.3896 30.9981 14.3906 30.5797C14.3927 30.1592 14.7391 29.8117 15.1606 29.8086C15.6029 29.8055 15.9587 30.1644 15.9451 30.5995C15.9315 31.0273 15.5893 31.3539 15.1606 31.3466V31.3476Z" fill="#EB526E"/>
</g>
<defs>
<clipPath id="clip0_6705_7013">
<rect width="40" height="40" fill="white"/>
</clipPath>
</defs>
</svg>
