<svg width="131" height="50" viewBox="0 0 131 50" fill="none" xmlns="http://www.w3.org/2000/svg">
<g id="Layer 1">
<g id="Group">
<path id="Vector" d="M38.7977 39.742C38.5817 39.742 38.4122 39.6789 38.2826 39.5492C38.153 39.4196 38.0898 39.2501 38.0898 39.0341V17.9569C38.0898 17.721 38.153 17.5382 38.2826 17.4086C38.4122 17.279 38.5817 17.2158 38.7977 17.2158H46.6177C48.1198 17.2158 49.4226 17.4684 50.5293 17.9736C51.6326 18.4787 52.4934 19.2232 53.1049 20.2102C53.7164 21.1973 54.0222 22.4203 54.0222 23.8793C54.0222 25.3383 53.7164 26.5613 53.1049 27.5483C52.4934 28.5354 51.636 29.2799 50.5293 29.785C49.4226 30.2902 48.1198 30.5428 46.6177 30.5428H40.1171V39.0374C40.1171 39.2535 40.054 39.4229 39.9244 39.5526C39.7947 39.6822 39.612 39.7453 39.376 39.7453H38.7977V39.742ZM40.1171 28.6052H46.4581C48.3259 28.6052 49.7117 28.1964 50.6257 27.3822C51.5363 26.5679 51.9949 25.3981 51.9949 23.876C51.9949 22.3538 51.5396 21.184 50.6257 20.3698C49.715 19.5555 48.3259 19.1467 46.4581 19.1467H40.1171V28.6085V28.6052Z" fill="#717070"/>
<path id="Vector_2" d="M58.5868 39.742C58.3708 39.742 58.2013 39.6789 58.0717 39.5493C57.9421 39.4197 57.8789 39.2502 57.8789 39.0342V23.7464C57.8789 23.5337 57.9421 23.3542 58.0717 23.2147C58.2013 23.0751 58.3708 23.0053 58.5868 23.0053H59.1019C59.3146 23.0053 59.4941 23.0751 59.6337 23.2147C59.7732 23.3542 59.843 23.5304 59.843 23.7464V25.2253C60.2285 24.4742 60.7869 23.9159 61.518 23.5503C62.2492 23.1847 63.1498 23.002 64.2199 23.002H65.4097C65.6224 23.002 65.7952 23.0651 65.9248 23.1947C66.0544 23.3243 66.1176 23.4938 66.1176 23.7098V24.1618C66.1176 24.3779 66.0544 24.5473 65.9248 24.677C65.7952 24.8066 65.6257 24.8697 65.4097 24.8697H64.0272C62.741 24.8697 61.7207 25.2453 60.9697 25.9964C60.2186 26.7475 59.843 27.7677 59.843 29.0539V39.0308C59.843 39.2469 59.7732 39.4163 59.6337 39.546C59.4941 39.6756 59.3179 39.7387 59.1019 39.7387H58.5868V39.742Z" fill="#717070"/>
<path id="Vector_3" d="M75.0613 40.0646C73.516 40.0646 72.2232 39.7422 71.1829 39.0975C70.1427 38.4528 69.3484 37.5754 68.8001 36.4587C68.2517 35.342 67.9593 34.0991 67.916 32.7265C67.8928 32.4041 67.8828 31.9555 67.8828 31.3739C67.8828 30.7923 67.8928 30.3436 67.916 30.0212C67.9593 28.6254 68.255 27.3758 68.8001 26.2724C69.3484 25.169 70.1394 24.2916 71.1829 23.6502C72.2232 23.0055 73.516 22.6831 75.0613 22.6831C76.6067 22.6831 77.8995 23.0055 78.9397 23.6502C79.9799 24.295 80.7742 25.169 81.3226 26.2724C81.8709 27.3791 82.1634 28.6254 82.2066 30.0212C82.2265 30.3436 82.2398 30.7923 82.2398 31.3739C82.2398 31.9555 82.2299 32.4041 82.2066 32.7265C82.1634 34.0991 81.8676 35.3454 81.3226 36.4587C80.7742 37.5754 79.9799 38.4528 78.9397 39.0975C77.8995 39.7422 76.6067 40.0646 75.0613 40.0646ZM75.0613 38.1969C76.5635 38.1969 77.7865 37.715 78.7303 36.7478C79.6742 35.7807 80.1793 34.3882 80.2425 32.5636C80.2624 32.2413 80.2757 31.8458 80.2757 31.3739C80.2757 30.9019 80.2657 30.5064 80.2425 30.1841C80.1793 28.3396 79.6742 26.9404 78.7303 25.9833C77.7865 25.0294 76.5635 24.5509 75.0613 24.5509C73.5592 24.5509 72.3362 25.0294 71.3923 25.9833C70.4485 26.9371 69.9433 28.3363 69.8802 30.1841C69.8602 30.5064 69.8469 30.9019 69.8469 31.3739C69.8469 31.8458 69.8569 32.2413 69.8802 32.5636C69.9433 34.3882 70.4485 35.7807 71.3923 36.7478C72.3362 37.7116 73.5592 38.1969 75.0613 38.1969Z" fill="#717070"/>
<path id="Vector_4" d="M87.7743 39.742C87.5583 39.742 87.3888 39.6789 87.2592 39.5492C87.1295 39.4196 87.0664 39.2501 87.0664 39.0341V17.9569C87.0664 17.721 87.1295 17.5382 87.2592 17.4086C87.3888 17.279 87.5583 17.2158 87.7743 17.2158H100.197C100.433 17.2158 100.616 17.279 100.745 17.4086C100.875 17.5382 100.938 17.721 100.938 17.9569V18.4388C100.938 18.6549 100.875 18.8244 100.745 18.954C100.616 19.0836 100.433 19.1467 100.197 19.1467H89.0937V27.8043H99.5524C99.7883 27.8043 99.9711 27.8674 100.101 27.997C100.23 28.1266 100.293 28.3094 100.293 28.5454V29.0273C100.293 29.2433 100.23 29.4128 100.101 29.5424C99.9711 29.672 99.7883 29.7352 99.5524 29.7352H89.0937V39.0341C89.0937 39.2501 89.0305 39.4196 88.9009 39.5492C88.7713 39.6789 88.5885 39.742 88.3526 39.742H87.7743Z" fill="#717070"/>
<path id="Vector_5" d="M106.118 39.742C105.902 39.742 105.733 39.6789 105.603 39.5492C105.473 39.4196 105.41 39.2501 105.41 39.0341V17.9237C105.41 17.711 105.473 17.5382 105.603 17.4086C105.733 17.279 105.902 17.2158 106.118 17.2158H106.73C106.942 17.2158 107.115 17.279 107.245 17.4086C107.374 17.5382 107.437 17.7077 107.437 17.9237V39.0341C107.437 39.2501 107.374 39.4196 107.245 39.5492C107.115 39.6789 106.946 39.742 106.73 39.742H106.118Z" fill="#717070"/>
<path id="Vector_6" d="M120.277 39.7419C119.998 39.7419 119.772 39.6788 119.602 39.5491C119.43 39.4195 119.29 39.2268 119.184 38.9709L111.719 18.2128C111.676 18.0831 111.656 17.9668 111.656 17.8571C111.656 17.6843 111.719 17.5348 111.849 17.4052C111.979 17.2755 112.128 17.2124 112.301 17.2124H112.976C113.188 17.2124 113.358 17.2722 113.474 17.3885C113.59 17.5082 113.66 17.6079 113.684 17.6943L120.732 37.3889L127.781 17.6943C127.825 17.6079 127.898 17.5082 128.007 17.3885C128.114 17.2722 128.276 17.2124 128.489 17.2124H129.164C129.337 17.2124 129.486 17.2755 129.616 17.4052C129.745 17.5348 129.809 17.6843 129.809 17.8571C129.809 17.9635 129.785 18.0831 129.745 18.2128L122.281 38.9709C122.195 39.2268 122.065 39.4195 121.896 39.5491C121.723 39.6788 121.487 39.7419 121.188 39.7419H120.287H120.277Z" fill="#717070"/>
</g>
<g id="Group_2">
<path id="Vector_7" d="M38.1286 49.8796C38.0987 49.8497 38.082 49.8098 38.082 49.7633V45.1304C38.082 45.0773 38.0953 45.0374 38.1252 45.0075C38.1551 44.9776 38.195 44.9609 38.2449 44.9609H38.5772C38.6636 44.9609 38.7201 44.9975 38.7534 45.0673L40.2655 47.9686L41.7909 45.0673C41.8275 44.9975 41.8873 44.9609 41.9604 44.9609H42.2928C42.3459 44.9609 42.3858 44.9776 42.4124 45.0075C42.439 45.0374 42.4556 45.0806 42.4556 45.1304V49.7633C42.4556 49.8098 42.439 49.8497 42.4091 49.8796C42.3792 49.9095 42.3393 49.9261 42.2928 49.9261H41.9671C41.9205 49.9261 41.8807 49.9095 41.8541 49.8796C41.8242 49.8497 41.8109 49.8098 41.8109 49.7633V46.2371L40.5978 48.5868C40.5513 48.6865 40.4749 48.7363 40.3718 48.7363H40.1591C40.0594 48.7363 39.983 48.6865 39.9332 48.5868L38.7268 46.2371V49.7633C38.7268 49.8098 38.7102 49.8497 38.6802 49.8796C38.6503 49.9095 38.6105 49.9261 38.5639 49.9261H38.2449C38.1984 49.9261 38.1585 49.9095 38.1286 49.8796Z" fill="#9C9C9B"/>
<path id="Vector_8" d="M44.3205 49.8801C44.2906 49.8502 44.2773 49.8103 44.2773 49.7638V45.1309C44.2773 45.0777 44.2906 45.0379 44.3205 45.008C44.3471 44.978 44.387 44.9614 44.4335 44.9614H47.3515C47.4046 44.9614 47.4445 44.978 47.4744 45.008C47.5044 45.0379 47.521 45.0811 47.521 45.1309V45.3868C47.521 45.4334 47.5044 45.4732 47.4744 45.4998C47.4445 45.5297 47.4013 45.543 47.3515 45.543H44.9321V47.125H47.1953C47.2484 47.125 47.2883 47.1416 47.3182 47.1715C47.3482 47.2014 47.3648 47.2446 47.3648 47.2945V47.5371C47.3648 47.5836 47.3482 47.6235 47.3182 47.6534C47.2883 47.6833 47.2451 47.6999 47.1953 47.6999H44.9321V49.3384H47.408C47.4611 49.3384 47.501 49.355 47.5309 49.3849C47.5609 49.4148 47.5775 49.458 47.5775 49.5079V49.7638C47.5775 49.8103 47.5608 49.8502 47.5276 49.8801C47.4944 49.91 47.4545 49.9266 47.408 49.9266H44.4335C44.387 49.9266 44.3471 49.91 44.3205 49.8801Z" fill="#9C9C9B"/>
<path id="Vector_9" d="M50.8981 49.335C51.2304 49.335 51.493 49.2884 51.6891 49.1954C51.8852 49.1023 52.0281 48.9594 52.1145 48.7633C52.2009 48.5672 52.2507 48.3014 52.2607 47.9657C52.2707 47.6832 52.274 47.5038 52.274 47.434C52.274 47.3575 52.2673 47.1847 52.2607 46.9089C52.2507 46.4369 52.1377 46.088 51.9217 45.8686C51.7057 45.6493 51.3534 45.5396 50.8616 45.5396H49.8047V49.335H50.8981ZM49.1799 49.8767C49.15 49.8468 49.1367 49.8069 49.1367 49.7604V45.1275C49.1367 45.0743 49.15 45.0344 49.1799 45.0045C49.2098 44.9746 49.2464 44.958 49.2929 44.958H50.8981C51.6126 44.958 52.1278 45.1175 52.4435 45.4366C52.7592 45.7556 52.9221 46.2375 52.932 46.8823C52.9353 47.0185 52.9387 47.2046 52.9387 47.4373C52.9387 47.6699 52.9387 47.856 52.932 47.9989C52.9221 48.4476 52.8489 48.8132 52.716 49.0957C52.5797 49.3782 52.3704 49.5875 52.0812 49.7238C51.7921 49.8601 51.4099 49.9299 50.9313 49.9299H49.2929C49.2464 49.9299 49.2098 49.9132 49.1799 49.8833" fill="#9C9C9B"/>
<path id="Vector_10" d="M54.6291 49.8796C54.5992 49.8497 54.5859 49.8098 54.5859 49.7633V45.1238C54.5859 45.0773 54.5992 45.0374 54.6291 45.0075C54.6557 44.9776 54.6956 44.9609 54.7421 44.9609H55.0977C55.1509 44.9609 55.1908 44.9742 55.2174 45.0041C55.2473 45.0341 55.2606 45.0739 55.2606 45.1238V49.7633C55.2606 49.8098 55.244 49.8497 55.2141 49.8796C55.1841 49.9095 55.1443 49.9261 55.0977 49.9261H54.7421C54.6956 49.9261 54.6557 49.9095 54.6291 49.8796Z" fill="#9C9C9B"/>
<path id="Vector_11" d="M57.414 49.4811C57.085 49.1388 56.9088 48.6701 56.8856 48.0719C56.8822 47.9456 56.8789 47.7363 56.8789 47.4471C56.8789 47.158 56.8789 46.942 56.8856 46.809C56.9088 46.2141 57.085 45.7422 57.414 45.3999C57.743 45.0576 58.2216 44.8848 58.8497 44.8848C59.2717 44.8848 59.6273 44.9612 59.9198 45.1074C60.2123 45.257 60.4349 45.4498 60.5845 45.6924C60.734 45.935 60.8138 46.1909 60.8304 46.4667C60.8304 46.5099 60.8138 46.5432 60.7839 46.5697C60.754 46.5963 60.7174 46.6096 60.6742 46.6096H60.3186C60.2721 46.6096 60.2322 46.5997 60.2056 46.5764C60.1757 46.5531 60.1558 46.5132 60.1425 46.4567C60.0627 46.0945 59.9165 45.8386 59.7071 45.6924C59.4977 45.5461 59.2119 45.473 58.853 45.473C58.0288 45.473 57.6001 45.9316 57.5702 46.8489C57.5635 46.9752 57.5635 47.1713 57.5635 47.4372C57.5635 47.703 57.5635 47.9024 57.5702 48.042C57.6034 48.956 58.0321 49.4113 58.853 49.4113C59.2086 49.4113 59.4911 49.3382 59.7038 49.1919C59.9165 49.0457 60.0627 48.7931 60.1425 48.4309C60.1558 48.3744 60.179 48.3345 60.2056 48.3112C60.2355 48.288 60.2721 48.2747 60.3186 48.2747H60.6742C60.7174 48.2747 60.754 48.288 60.7839 48.3145C60.8138 48.3411 60.8304 48.3744 60.8304 48.4176C60.8171 48.6934 60.734 48.9493 60.5845 49.1919C60.4349 49.4312 60.2156 49.6273 59.9198 49.7768C59.6273 49.9264 59.2684 49.9995 58.8497 49.9995C58.2216 49.9995 57.743 49.8267 57.414 49.4844" fill="#9C9C9B"/>
<path id="Vector_12" d="M62.3987 49.8796C62.3688 49.8497 62.3555 49.8098 62.3555 49.7633V45.1238C62.3555 45.0773 62.3688 45.0374 62.3987 45.0075C62.4253 44.9776 62.4651 44.9609 62.5117 44.9609H62.8673C62.9204 44.9609 62.9603 44.9742 62.9869 45.0041C63.0168 45.0341 63.0301 45.0739 63.0301 45.1238V49.7633C63.0301 49.8098 63.0135 49.8497 62.9836 49.8796C62.9537 49.9095 62.9138 49.9261 62.8673 49.9261H62.5117C62.4651 49.9261 62.4253 49.9095 62.3987 49.8796Z" fill="#9C9C9B"/>
<path id="Vector_13" d="M64.8987 49.8796C64.8688 49.8497 64.8555 49.8098 64.8555 49.7633V45.1304C64.8555 45.0773 64.8688 45.0374 64.8987 45.0075C64.9253 44.9776 64.9651 44.9609 65.0117 44.9609H65.3241C65.3706 44.9609 65.4071 44.9709 65.4304 44.9909C65.4537 45.0108 65.4769 45.0341 65.5002 45.0606L67.8764 48.7197V45.1304C67.8764 45.0773 67.893 45.0374 67.923 45.0075C67.9529 44.9776 67.9927 44.9609 68.0393 44.9609H68.3583C68.4115 44.9609 68.4514 44.9776 68.4813 45.0075C68.5112 45.0374 68.5278 45.0806 68.5278 45.1304V49.7566C68.5278 49.8032 68.5112 49.8431 68.4813 49.8763C68.4514 49.9095 68.4115 49.9261 68.365 49.9261H68.0459C67.9662 49.9261 67.9097 49.8929 67.8764 49.8264L65.5002 46.2006V49.7633C65.5002 49.8098 65.4836 49.8497 65.4537 49.8796C65.4204 49.9095 65.3839 49.9261 65.3374 49.9261H65.0117C64.9651 49.9261 64.9253 49.9095 64.8987 49.8796Z" fill="#9C9C9B"/>
<path id="Vector_14" d="M71.1111 48.1951H73.0553L72.0816 45.6494L71.1111 48.1951ZM69.8948 49.8834C69.8649 49.8535 69.8516 49.8203 69.8516 49.7837L69.8649 49.7073L71.6229 45.1176C71.6595 45.0146 71.7359 44.9614 71.8489 44.9614H72.3042C72.4172 44.9614 72.4937 45.0146 72.5302 45.1176L74.2883 49.7073L74.3016 49.7837C74.3016 49.8203 74.285 49.8535 74.255 49.8834C74.2251 49.9133 74.1886 49.9266 74.152 49.9266H73.8197C73.7732 49.9266 73.7333 49.9133 73.7034 49.8867C73.6735 49.8602 73.6535 49.8336 73.6435 49.8037L73.2447 48.7834H70.8951L70.5063 49.8037C70.4697 49.8834 70.4099 49.9233 70.3301 49.9233H69.9911C69.9546 49.9233 69.9214 49.91 69.8914 49.8801" fill="#9C9C9B"/>
<path id="Vector_15" d="M79.6234 47.3339C80.3379 47.3339 80.6935 47.0348 80.6935 46.4332C80.6935 45.8317 80.3346 45.5326 79.6234 45.5326H78.4303V47.3339H79.6234ZM77.8088 49.8796C77.7789 49.8497 77.7656 49.8098 77.7656 49.7633V45.1304C77.7656 45.0773 77.7789 45.0374 77.8088 45.0075C77.8354 44.9776 77.8753 44.9609 77.9218 44.9609H79.6533C80.1917 44.9609 80.6138 45.0872 80.9195 45.3398C81.2253 45.5924 81.3781 45.9613 81.3781 46.4432C81.3781 46.8021 81.2884 47.0979 81.1089 47.3305C80.9295 47.5632 80.6802 47.7227 80.3579 47.8124L81.4513 49.7068C81.4646 49.7367 81.4745 49.76 81.4745 49.7832C81.4745 49.8231 81.4612 49.853 81.4313 49.8829C81.4014 49.9128 81.3715 49.9261 81.3316 49.9261H81.0192C80.9494 49.9261 80.8929 49.9095 80.853 49.8763C80.8132 49.8431 80.7766 49.7965 80.7434 49.7334L79.6998 47.9155H78.4369V49.76C78.4369 49.8065 78.4203 49.8464 78.3871 49.8763C78.3539 49.9062 78.314 49.9228 78.2675 49.9228H77.9285C77.8819 49.9228 77.8421 49.9062 77.8155 49.8763" fill="#9C9C9B"/>
<path id="Vector_16" d="M83.012 49.8796C82.982 49.8497 82.9688 49.8098 82.9688 49.7633V45.1304C82.9688 45.0773 82.982 45.0374 83.012 45.0075C83.0385 44.9776 83.0784 44.9609 83.1249 44.9609H86.0396C86.0927 44.9609 86.1326 44.9776 86.1625 45.0075C86.1924 45.0374 86.209 45.0806 86.209 45.1304V45.3863C86.209 45.4329 86.1924 45.4727 86.1625 45.4993C86.1326 45.5292 86.0894 45.5425 86.0396 45.5425H83.6201V47.1245H85.8834C85.9365 47.1245 85.9764 47.1411 86.0063 47.171C86.0362 47.2009 86.0529 47.2441 86.0529 47.294V47.5366C86.0529 47.5831 86.0362 47.623 86.0063 47.6529C85.9764 47.6828 85.9332 47.6994 85.8834 47.6994H83.6201V49.3379H86.0961C86.1492 49.3379 86.1891 49.3545 86.219 49.3844C86.2489 49.4143 86.2655 49.4575 86.2655 49.5074V49.7633C86.2655 49.8098 86.2489 49.8497 86.2157 49.8796C86.1825 49.9095 86.1426 49.9261 86.0961 49.9261H83.1216C83.0751 49.9261 83.0352 49.9095 83.0086 49.8796" fill="#9C9C9B"/>
<path id="Vector_17" d="M89.7496 47.4007C90.4641 47.4007 90.8198 47.0916 90.8198 46.4702C90.8198 46.1677 90.73 45.9351 90.5539 45.7756C90.3777 45.616 90.1085 45.533 89.7496 45.533H88.5067V47.4007H89.7496ZM87.8752 49.8767C87.8453 49.8468 87.832 49.8069 87.832 49.7604V45.1275C87.832 45.0743 87.8453 45.0344 87.8752 45.0045C87.9018 44.9746 87.9417 44.958 87.9882 44.958H89.7829C90.3179 44.958 90.7367 45.0876 91.0424 45.3468C91.3482 45.6028 91.5011 45.9783 91.5011 46.4702C91.5011 46.962 91.3482 47.3343 91.0424 47.5902C90.7367 47.8461 90.3179 47.9724 89.7829 47.9724H88.5067V49.7604C88.5067 49.8069 88.4901 49.8468 88.4602 49.8767C88.4302 49.9066 88.3904 49.9232 88.3438 49.9232H87.9882C87.9417 49.9232 87.9018 49.9066 87.8752 49.8767Z" fill="#9C9C9B"/>
<path id="Vector_18" d="M94.8064 47.3339C95.5209 47.3339 95.8765 47.0348 95.8765 46.4332C95.8765 45.8317 95.5176 45.5326 94.8064 45.5326H93.6133V47.3339H94.8064ZM92.9885 49.8796C92.9586 49.8497 92.9453 49.8098 92.9453 49.7633V45.1304C92.9453 45.0773 92.9586 45.0374 92.9885 45.0075C93.0151 44.9776 93.055 44.9609 93.1015 44.9609H94.833C95.3714 44.9609 95.7934 45.0872 96.0992 45.3398C96.405 45.5924 96.5578 45.9613 96.5578 46.4432C96.5578 46.8021 96.4681 47.0979 96.2886 47.3305C96.1092 47.5632 95.8599 47.7227 95.5375 47.8124L96.6309 49.7068C96.6442 49.7367 96.6542 49.76 96.6542 49.7832C96.6542 49.8231 96.6409 49.853 96.611 49.8829C96.5811 49.9128 96.5512 49.9261 96.5113 49.9261H96.1989C96.1291 49.9261 96.0726 49.9095 96.0327 49.8763C95.9928 49.8431 95.9563 49.7965 95.9231 49.7334L94.8795 47.9155H93.6166V49.76C93.6166 49.8065 93.6 49.8464 93.5668 49.8763C93.5335 49.9062 93.4937 49.9228 93.4471 49.9228H93.1048C93.0583 49.9228 93.0184 49.9062 92.9918 49.8763" fill="#9C9C9B"/>
<path id="Vector_19" d="M100.825 49.0624C101.051 48.8331 101.173 48.4808 101.193 48.0089C101.203 47.7231 101.207 47.537 101.207 47.4406C101.207 47.3375 101.203 47.1481 101.193 46.8723C101.173 46.4003 101.051 46.0481 100.825 45.8154C100.595 45.5828 100.296 45.4665 99.9172 45.4665C99.5384 45.4665 99.236 45.5828 99.0066 45.8154C98.7773 46.0481 98.6544 46.4003 98.6411 46.8723C98.6377 47.0085 98.6344 47.198 98.6344 47.4406C98.6344 47.6832 98.6344 47.866 98.6411 48.0089C98.6544 48.4808 98.7773 48.8331 99.0033 49.0624C99.2293 49.2917 99.5351 49.4047 99.9172 49.4047C100.299 49.4047 100.599 49.2884 100.825 49.0624ZM98.4915 49.5111C98.1558 49.1854 97.9764 48.7002 97.9598 48.0454C97.9564 47.9025 97.9531 47.7031 97.9531 47.4439C97.9531 47.1847 97.9531 46.9853 97.9598 46.849C97.9797 46.2076 98.1625 45.719 98.5115 45.3867C98.8604 45.0544 99.329 44.8882 99.9206 44.8882C100.512 44.8882 100.981 45.0544 101.326 45.3867C101.672 45.719 101.855 46.2043 101.871 46.849C101.881 47.1248 101.885 47.3209 101.885 47.4439C101.885 47.5669 101.881 47.7629 101.871 48.0454C101.855 48.6968 101.679 49.1854 101.343 49.5111C101.011 49.8368 100.535 49.9963 99.9206 49.9963C99.3057 49.9963 98.8305 49.8334 98.4948 49.5111" fill="#9C9C9B"/>
<path id="Vector_20" d="M105.262 49.335C105.594 49.335 105.857 49.2884 106.053 49.1954C106.249 49.1023 106.392 48.9594 106.478 48.7633C106.565 48.5672 106.615 48.3014 106.625 47.9657C106.635 47.6832 106.638 47.5038 106.638 47.434C106.638 47.3575 106.635 47.1847 106.625 46.9089C106.615 46.4369 106.502 46.088 106.289 45.8686C106.073 45.6493 105.721 45.5396 105.229 45.5396H104.172V49.335H105.265H105.262ZM103.547 49.8767C103.517 49.8468 103.504 49.8069 103.504 49.7604V45.1275C103.504 45.0743 103.517 45.0344 103.547 45.0045C103.574 44.9746 103.614 44.958 103.66 44.958H105.265C105.98 44.958 106.495 45.1175 106.811 45.4366C107.126 45.7556 107.289 46.2375 107.299 46.8823C107.303 47.0185 107.306 47.2046 107.306 47.4373C107.306 47.6699 107.306 47.856 107.299 47.9989C107.289 48.4476 107.216 48.8132 107.083 49.0957C106.95 49.3782 106.738 49.5875 106.448 49.7238C106.159 49.8601 105.777 49.9299 105.299 49.9299H103.66C103.614 49.9299 103.574 49.9132 103.547 49.8833" fill="#9C9C9B"/>
<path id="Vector_21" d="M109.409 49.5011C109.077 49.1721 108.914 48.6736 108.914 48.0089V45.1275C108.914 45.0743 108.927 45.0344 108.957 45.0045C108.987 44.9746 109.024 44.958 109.07 44.958H109.409C109.462 44.958 109.502 44.9746 109.532 45.0045C109.562 45.0344 109.579 45.0776 109.579 45.1275V48.0222C109.579 48.4875 109.685 48.8298 109.901 49.0591C110.117 49.2851 110.423 49.3981 110.822 49.3981C111.22 49.3981 111.516 49.2851 111.732 49.0558C111.948 48.8265 112.055 48.4808 112.055 48.0222V45.1275C112.055 45.0743 112.068 45.0344 112.098 45.0045C112.124 44.9746 112.168 44.958 112.218 44.958H112.56C112.606 44.958 112.646 44.9746 112.676 45.0045C112.706 45.0344 112.723 45.0776 112.723 45.1275V48.0089C112.723 48.6769 112.56 49.1721 112.231 49.5011C111.902 49.8301 111.433 49.993 110.822 49.993C110.21 49.993 109.742 49.8268 109.409 49.5011Z" fill="#9C9C9B"/>
<path id="Vector_22" d="M115.618 49.8796C115.588 49.8497 115.571 49.8098 115.571 49.7633V45.5691H114.202C114.155 45.5691 114.115 45.5525 114.086 45.5226C114.056 45.4927 114.039 45.4528 114.039 45.4063V45.1304C114.039 45.0773 114.052 45.0374 114.086 45.0075C114.115 44.9776 114.155 44.9609 114.202 44.9609H117.608C117.662 44.9609 117.701 44.9776 117.728 45.0075C117.758 45.0374 117.771 45.0806 117.771 45.1304V45.4063C117.771 45.4528 117.755 45.4927 117.725 45.5226C117.695 45.5525 117.655 45.5691 117.608 45.5691H116.246V49.7633C116.246 49.8098 116.229 49.8497 116.196 49.8796C116.163 49.9095 116.123 49.9261 116.076 49.9261H115.737C115.691 49.9261 115.651 49.9095 115.621 49.8796" fill="#9C9C9B"/>
<path id="Vector_23" d="M119.192 49.8796C119.162 49.8497 119.148 49.8098 119.148 49.7633V45.1238C119.148 45.0773 119.162 45.0374 119.192 45.0075C119.218 44.9776 119.258 44.9609 119.305 44.9609H119.66C119.713 44.9609 119.753 44.9742 119.78 45.0041C119.806 45.0341 119.823 45.0739 119.823 45.1238V49.7633C119.823 49.8098 119.806 49.8497 119.777 49.8796C119.747 49.9095 119.707 49.9261 119.66 49.9261H119.305C119.258 49.9261 119.218 49.9095 119.192 49.8796Z" fill="#9C9C9B"/>
<path id="Vector_24" d="M122.851 49.74L121.255 45.1803L121.242 45.1038C121.242 45.064 121.259 45.0341 121.289 45.0041C121.319 44.9742 121.352 44.9609 121.392 44.9609H121.731C121.784 44.9609 121.824 44.9742 121.854 45.0008C121.884 45.0274 121.904 45.0573 121.914 45.0906L123.319 49.1485L124.732 45.0906C124.742 45.0573 124.762 45.0274 124.792 45.0008C124.821 44.9742 124.865 44.9609 124.915 44.9609H125.254C125.29 44.9609 125.323 44.9742 125.353 45.0041C125.383 45.0341 125.396 45.064 125.396 45.1038C125.396 45.1371 125.396 45.1637 125.39 45.1803L123.795 49.74C123.748 49.863 123.662 49.9261 123.539 49.9261H123.107C122.984 49.9261 122.897 49.8663 122.851 49.74Z" fill="#9C9C9B"/>
<path id="Vector_25" d="M127.26 48.1946H129.204L128.231 45.6489L127.26 48.1946ZM126.047 49.8829C126.017 49.853 126.004 49.8198 126.004 49.7832L126.017 49.7068L127.775 45.1171C127.812 45.0141 127.888 44.9609 128.001 44.9609H128.457C128.57 44.9609 128.646 45.0141 128.683 45.1171L130.441 49.7068L130.454 49.7832C130.454 49.8198 130.437 49.853 130.407 49.8829C130.377 49.9128 130.341 49.9261 130.304 49.9261H129.972C129.926 49.9261 129.886 49.9128 129.856 49.8863C129.826 49.8597 129.806 49.8331 129.796 49.8032L129.397 48.7829H127.047L126.659 49.8032C126.622 49.8829 126.562 49.9228 126.482 49.9228H126.143C126.107 49.9228 126.074 49.9095 126.044 49.8796" fill="#9C9C9B"/>
</g>
<g id="Group_3">
<path id="Vector_26" d="M33.8662 10.5919C33.8662 10.5919 26.5016 7.08573 25.4414 17.4681C28.0436 22.0378 28.8578 26.5477 27.3956 30.6355C29.4627 29.0303 31.6595 26.5344 32.2145 22.4267C32.5335 20.0537 32.7495 13.3304 33.5704 12.9482L43.6303 8.03955L33.8662 10.5886V10.5919Z" fill="#04B1AA"/>
<path id="Vector_27" d="M16.1683 29.3197C17.9363 26.857 19.9536 24.165 22.1537 21.4265C22.1537 21.4265 22.157 21.4232 22.1603 21.4199C20.6681 19.3161 18.4415 17.4284 15.6232 15.7169C11.5022 13.211 6.12832 11.0741 0 9.16309C6.76641 15.2184 12.7585 21.6525 16.155 29.3429C16.1583 29.3363 16.1649 29.3296 16.1683 29.323" fill="#EB526E"/>
<path id="Vector_28" d="M22.1599 21.4195C22.685 20.7648 23.2201 20.11 23.7651 19.452C23.7751 19.442 23.7818 19.4321 23.7917 19.4221C24.3334 18.7707 24.8851 18.1193 25.4434 17.4679C22.0037 11.4359 15.5231 5.40389 6.96875 0C10.3453 5.15796 13.3862 10.3624 15.6228 15.7165C18.4411 17.428 20.6677 19.3157 22.1599 21.4195Z" fill="#F1768B"/>
<path id="Vector_29" d="M25.4424 17.4678C15.8379 28.6179 8.69922 40.5157 8.69922 40.5157L19.4005 33.3504C19.4005 33.3504 21.009 33.4102 23.1094 32.7987C24.4354 32.4099 25.9609 31.7519 27.3966 30.6385C28.8589 26.5507 28.0446 22.0375 25.4424 17.4711" fill="#04B1AA"/>
</g>
</g>
</svg>
