<svg width="46" height="42" viewBox="0 0 46 42" fill="none" xmlns="http://www.w3.org/2000/svg">
<path d="M5 6.33338C5 7.74788 5.56187 9.10444 6.56201 10.1046C7.56217 11.1049 8.91872 11.6668 10.333 11.6668C11.7474 11.6668 13.1039 11.1049 14.104 10.1046C15.1042 9.10444 15.6661 7.74788 15.6661 6.33338C15.6661 4.91888 15.1042 3.56232 14.104 2.56211C13.1039 1.56191 11.7474 1 10.333 1C8.91872 1 7.56217 1.56191 6.56201 2.56211C5.56187 3.56232 5 4.91888 5 6.33338Z" stroke="#6A68CE" stroke-width="1.87494" stroke-linecap="round" stroke-linejoin="round"/>
<path d="M14.3326 41.0001L15.6659 27.6666H19.6657V23.6666C19.6664 22.1203 19.2828 20.5981 18.5491 19.237C17.8156 17.876 16.7551 16.7186 15.4632 15.8691L10.3328 23.6666L5.20244 15.8691C3.91053 16.7186 2.85007 17.876 2.11649 19.237C1.38293 20.5981 0.999254 22.1203 1 23.6666V27.6666H4.99979L6.33305 41.0001H14.3326Z" stroke="#6A68CE" stroke-width="1.87494" stroke-linecap="round" stroke-linejoin="round"/>
<path d="M4.99978 6.3335C4.99978 6.3335 4.99978 13.0002 1 13.0002" stroke="#6A68CE" stroke-width="1.87494" stroke-linecap="round" stroke-linejoin="round"/>
<path d="M15.668 6.33301C15.668 6.33301 15.668 12.9997 19.6678 12.9997" stroke="#6A68CE" stroke-width="1.87494" stroke-linecap="round" stroke-linejoin="round"/>
<path d="M30.5234 6.71426C30.5234 8.22978 31.1255 9.68322 32.1971 10.7549C33.2688 11.8265 34.7223 12.4285 36.2377 12.4285C37.7531 12.4285 39.2066 11.8265 40.2783 10.7549C41.3499 9.68322 41.952 8.22978 41.952 6.71426C41.952 5.19875 41.3499 3.7453 40.2783 2.67367C39.2066 1.60204 37.7531 1 36.2377 1C34.7223 1 33.2688 1.60204 32.1971 2.67367C31.1255 3.7453 30.5234 5.19875 30.5234 6.71426Z" stroke="#6A68CE" stroke-width="1.87" stroke-linecap="round" stroke-linejoin="round"/>
<path d="M41.2108 16.8975L36.2394 23.8574L31.268 16.8975C30.1562 17.6864 29.2493 18.7296 28.6232 19.9405C27.9969 21.1511 27.6693 22.4942 27.668 23.8574V29.5717C27.668 30.3294 27.9689 31.0562 28.5047 31.592C29.0405 32.1279 29.7674 32.4288 30.5251 32.4288H31.9537V38.1431C31.9537 38.9008 32.2546 39.6276 32.7904 40.1634C33.3262 40.6993 34.0531 41.0002 34.8108 41.0002H37.6679C38.4256 41.0002 39.1525 40.6993 39.6883 40.1634C40.2241 39.6276 40.5251 38.9008 40.5251 38.1431V32.4288H41.9536C42.7113 32.4288 43.4382 32.1279 43.974 31.592C44.5098 31.0562 44.8108 30.3294 44.8108 29.5717V23.8574C44.8094 22.4942 44.4818 21.1511 43.8555 19.9405C43.2294 18.7296 42.3226 17.6864 41.2108 16.8975Z" stroke="#6A68CE" stroke-width="1.87" stroke-linecap="round" stroke-linejoin="round"/>
</svg>
