<svg width="41" height="41" viewBox="0 0 41 41" fill="none" xmlns="http://www.w3.org/2000/svg">
<g id="Frame">
<path id="Vector" d="M35.9346 20.5003C35.9346 24.5935 34.3086 28.519 31.4143 31.4133C28.52 34.3076 24.5945 35.9337 20.5013 35.9337C16.4081 35.9337 12.4826 34.3076 9.58829 31.4133C6.69398 28.519 5.06797 24.5935 5.06797 20.5003C5.06797 16.4072 6.69398 12.4816 9.58829 9.58731C12.4826 6.693 16.4081 5.06699 20.5013 5.06699C24.5945 5.06699 28.52 6.693 31.4143 9.58731C34.3086 12.4816 35.9346 16.4072 35.9346 20.5003Z" stroke="#6A68CE" stroke-width="0.8"/>
<g id="Group 5004">
<g id="Vector_2">
<path d="M18.3259 24.0508L16.7259 22.4508C16.5211 22.9401 16.4779 23.4819 16.6025 23.9975L17.1692 26.4575C17.2074 26.6237 17.1937 26.7976 17.1299 26.9558C17.0662 27.114 16.9554 27.2488 16.8125 27.3421C16.6697 27.4353 16.5017 27.4824 16.3312 27.4771C16.1607 27.4718 15.996 27.4144 15.8592 27.3125L15.4542 27.0091L14.1875 28.1781C14.1875 28.1781 14.3218 28.2435 14.4559 28.3441L14.8609 28.6475C16.7259 30.0425 19.3175 28.3525 18.7942 26.0841L18.3259 24.0508Z" fill="#6A68CE"/>
<path d="M23.4309 18.4662L21.8309 16.8662C21.6261 17.3555 21.5829 17.8973 21.7075 18.4129L22.2742 20.8729C22.3124 21.0391 22.2987 21.2131 22.2349 21.3712C22.1712 21.5294 22.0604 21.6642 21.9175 21.7575C21.7747 21.8507 21.6067 21.8978 21.4362 21.8925C21.2657 21.8873 21.101 21.8298 20.9642 21.7279L20.5592 21.4245C18.7392 20.0629 16.1942 21.6412 16.6025 23.8745L16.8192 25.0579L18.4575 24.7579L18.2409 23.5762C18.2106 23.4113 18.2309 23.2411 18.2989 23.0879C18.3669 22.9347 18.4795 22.8055 18.6221 22.7173C18.7647 22.6291 18.9305 22.5859 19.098 22.5935C19.2655 22.601 19.4268 22.6589 19.5609 22.7595L19.9659 23.0629C21.8309 24.4579 24.4225 22.7679 23.8992 20.4995L23.4309 18.4662Z" fill="#6A68CE"/>
</g>
<path id="Vector_3" fill-rule="evenodd" clip-rule="evenodd" d="M22.4114 18.3948C22.6747 17.9465 23.6888 19.5866 23.6888 19.5866L23.4438 17.8116C24.4854 17.9 25.6638 17.4616 26.5804 16.5466C28.0454 15.0816 28.2821 12.9433 27.1104 11.7716C25.9388 10.5983 23.7988 10.8366 22.3338 12.3016C20.9438 13.6916 20.6588 15.6883 21.6338 16.89L22.0421 17.9826L22.4114 18.3948ZM23.5121 13.48C24.5871 12.4066 25.6421 12.66 25.9321 12.95C26.2221 13.2383 26.4754 14.295 25.4004 15.3683C24.3271 16.4416 23.2721 16.1883 22.9821 15.9C22.6921 15.61 22.4388 14.5533 23.5121 13.48Z" fill="#6A68CE"/>
</g>
</g>
</svg>
