<svg width="41" height="41" viewBox="0 0 41 41" fill="none" xmlns="http://www.w3.org/2000/svg">
<g id="Frame">
<path id="Vector" d="M3.83594 20.5H20.5026" stroke="#FDC242" stroke-width="1.6" stroke-linecap="round" stroke-linejoin="round"/>
<path id="Vector_2" d="M15.5 7.16699V33.8337" stroke="#FDC242" stroke-width="1.6" stroke-linecap="round" stroke-linejoin="round"/>
<path id="Vector_3" d="M5.5 15.5L10.5 20.5L5.5 25.5" stroke="#FDC242" stroke-width="1.6" stroke-linecap="round" stroke-linejoin="round"/>
<path id="Vector_4" d="M20.5 10.5L15.5 15.5L10.5 10.5" stroke="#FDC242" stroke-width="1.6" stroke-linecap="round" stroke-linejoin="round"/>
<path id="Vector_5" d="M10.5 30.5L15.5 25.5L18 28" stroke="#FDC242" stroke-width="1.6" stroke-linecap="round" stroke-linejoin="round"/>
<path id="Vector_6" d="M33.8359 7.16634V24.733C35.1069 25.4668 36.1002 26.5994 36.6618 27.9553C37.2234 29.3111 37.3219 30.8144 36.9421 32.232C36.5623 33.6495 35.7253 34.9021 34.561 35.7955C33.3967 36.6889 31.9702 37.1732 30.5026 37.1732C29.035 37.1732 27.6085 36.6889 26.4442 35.7955C25.2799 34.9021 24.4429 33.6495 24.0631 32.232C23.6833 30.8144 23.7818 29.3111 24.3434 27.9553C24.905 26.5994 25.8983 25.4668 27.1693 24.733V7.16634C27.1693 6.28229 27.5205 5.43444 28.1456 4.80932C28.7707 4.1842 29.6186 3.83301 30.5026 3.83301C31.3867 3.83301 32.2345 4.1842 32.8596 4.80932C33.4848 5.43444 33.8359 6.28229 33.8359 7.16634Z" stroke="#FDC242" stroke-width="1.6" stroke-linecap="round" stroke-linejoin="round"/>
</g>
</svg>
