<svg width="41" height="41" viewBox="0 0 41 41" fill="none" xmlns="http://www.w3.org/2000/svg">
<g id="Camada_1" clip-path="url(#clip0_6411_8340)">
<path id="Vector" d="M14.6511 40.5C13.8206 40.3612 12.9714 40.2892 12.1608 40.0732C6.50105 38.5644 2.72755 35.0137 1.08962 29.3919C-1.28695 21.2356 3.75413 12.6734 12.0179 10.6262C12.5541 10.4937 12.9662 10.6846 13.0883 11.1218C13.2228 11.6039 12.9579 11.9879 12.3914 12.1412C8.00336 13.3318 4.86208 15.9966 3.09687 20.1859C0.1851 27.0985 3.66858 35.2402 10.6522 37.9707C18.5696 41.0655 27.2705 36.3837 28.9835 28.0594C29.7545 24.3126 29.0054 20.8245 26.8761 17.64C26.8125 17.544 26.7363 17.4553 26.6873 17.3906C25.4155 18.6667 24.1521 19.9344 22.8491 21.2418C23.3217 21.4787 23.8256 21.7395 24.3357 21.9837C24.5809 22.1016 24.848 22.1757 25.0921 22.2946C26.3472 22.9092 27.0566 23.9056 27.0702 25.3163C27.1286 31.1427 22.5914 36.1542 16.796 36.6863C10.6324 37.2529 5.21262 32.9728 4.36235 26.8668C3.48496 20.5626 8.0597 14.6965 14.4028 14.0089C14.9943 13.9453 15.6088 13.891 16.1909 13.9787C17.445 14.1665 18.3025 14.9167 18.7908 16.0874C19.0046 16.5997 19.2258 17.1079 19.4334 17.592C20.6666 16.3608 21.8674 15.1619 23.0849 13.9463C22.1741 13.3265 21.1392 12.8351 20.0469 12.4595C19.7641 12.3624 19.4752 12.2852 19.1872 12.2049C18.5279 12.0233 18.2545 11.678 18.3839 11.1824C18.5143 10.6836 18.9316 10.5114 19.5795 10.6857C21.1486 11.1083 22.6144 11.7583 23.9716 12.6546C24.0687 12.7182 24.1688 12.7788 24.2356 12.8205C25.0984 11.9566 25.9486 11.1051 26.8292 10.2224C26.3586 9.75706 25.8579 9.2677 25.3634 8.77104C24.8897 8.2942 24.8939 7.91127 25.3738 7.42818C26.0519 6.74475 26.7342 6.06445 27.4134 5.38101C27.4311 5.36328 27.4426 5.33823 27.4781 5.28398C27.4103 5.18172 27.332 5.06799 27.259 4.95113C26.4838 3.70844 26.3858 2.4167 27.0023 1.08427C27.2433 0.562567 27.6721 0.377884 28.0999 0.580305C28.5297 0.782725 28.6486 1.222 28.416 1.74057C27.9601 2.75685 28.1228 3.7147 28.9063 4.50038C31.3528 6.9503 33.8013 9.39813 36.2551 11.8418C37.072 12.6556 38.1695 12.8017 39.1523 12.2477C39.7814 11.8929 40.1256 11.9858 40.5002 12.6118V13.0803C40.3468 13.2326 40.2154 13.4184 40.037 13.5311C39.1523 14.0955 38.1862 14.2531 37.1586 14.0507C36.4439 13.9098 35.8305 13.5624 35.2661 13.0751C34.5754 13.769 33.9077 14.443 33.238 15.1149C32.6235 15.7306 32.2949 15.7264 31.6731 15.1056C31.2078 14.6402 30.7414 14.1759 30.3471 13.7836C29.4905 14.6381 28.6674 15.4603 27.8338 16.2919C27.8463 16.3107 27.8902 16.3743 27.935 16.438C30.3919 19.9219 31.2923 23.7669 30.5881 27.976C29.6022 33.8733 24.945 38.794 19.0964 40.1035C18.3015 40.2819 17.4867 40.3716 16.6802 40.5031H14.65L14.6511 40.5ZM21.5575 22.3677C21.5168 22.4157 21.4323 22.5325 21.3311 22.6337C20.2649 23.7032 19.1945 24.7675 18.1314 25.8401C17.8602 26.1145 17.5566 26.2554 17.1841 26.1093C16.8096 25.9622 16.6844 25.6492 16.6855 25.2631C16.6896 23.818 16.6719 22.3729 16.7011 20.9288C16.7063 20.6711 16.843 20.3727 17.012 20.1702C17.3615 19.7529 17.7809 19.394 18.1533 18.9943C18.2284 18.914 18.2879 18.7356 18.2504 18.6479C17.9405 17.9332 17.6181 17.2237 17.2739 16.5256C16.9484 15.8641 16.409 15.4812 15.6589 15.501C15.0757 15.5167 14.4883 15.5594 13.9145 15.6565C8.54586 16.5601 4.87042 21.9962 6.02428 27.3092C7.12284 32.3708 11.6131 35.6325 16.7741 35.1191C21.6608 34.6329 25.5439 30.3048 25.5115 25.381C25.5063 24.5964 25.1338 24.0455 24.4369 23.7137C23.5126 23.2744 22.5831 22.8466 21.5565 22.3677H21.5575ZM34.0809 11.9712C32.2479 10.14 30.4097 8.30464 28.6215 6.51728C28.0853 7.05046 27.5282 7.60451 26.9982 8.13248C28.8124 9.93861 30.6517 11.7708 32.4743 13.5853C32.997 13.0605 33.5436 12.5117 34.082 11.9712H34.0809ZM21.4814 20.1828C24.0478 17.617 26.5767 15.0889 29.0858 12.5795C28.7217 12.2195 28.3367 11.8376 27.9935 11.4985C25.4948 13.9985 22.9785 16.5162 20.4287 19.0674C20.7688 19.4284 21.1402 19.8217 21.4803 20.1838L21.4814 20.1828ZM18.2504 23.3954C18.9754 22.6838 19.6775 21.9941 20.3818 21.3044C20.026 20.9298 19.6525 20.5365 19.2248 20.0857C18.9233 20.4092 18.627 20.718 18.3453 21.0394C18.2848 21.1083 18.2545 21.2262 18.2535 21.3211C18.2462 22.0098 18.2493 22.6984 18.2493 23.3954H18.2504Z" fill="#EC526E"/>
<path id="Vector_2" d="M16.5889 10.9523C16.5909 11.3696 16.2373 11.7327 15.8283 11.7338C15.4131 11.7338 15.0469 11.3863 15.0354 10.9804C15.024 10.5433 15.3724 10.1916 15.8189 10.1885C16.2425 10.1854 16.5868 10.5266 16.5889 10.9523Z" fill="#EC526E"/>
<path id="Vector_3" d="M8.32138 25.1195C8.32869 23.328 9.79031 21.8891 11.592 21.8985C13.3875 21.9079 14.822 23.3634 14.8126 25.1685C14.8032 26.9621 13.3437 28.402 11.543 28.3937C9.75379 28.3853 8.31304 26.9214 8.32034 25.1205L8.32138 25.1195ZM11.566 23.4605C10.6281 23.4605 9.88212 24.2086 9.88316 25.1466C9.88316 26.0825 10.6343 26.8317 11.5701 26.8307C12.5059 26.8307 13.2529 26.0794 13.2519 25.1424C13.2519 24.2034 12.5059 23.4594 11.566 23.4605Z" fill="#EC526E"/>
<path id="Vector_4" d="M21.2789 28.2245C21.2831 28.6481 20.9451 29.0081 20.5309 29.0195C20.0907 29.0321 19.7255 28.6804 19.7266 28.2453C19.7276 27.828 20.0792 27.4722 20.4944 27.4659C20.9107 27.4596 21.2748 27.8123 21.2789 28.2245Z" fill="#EC526E"/>
<path id="Vector_5" d="M15.6606 31.8476C15.2328 31.8403 14.8896 31.4981 14.8906 31.0797C14.8927 30.6592 15.2391 30.3117 15.6606 30.3086C16.1029 30.3055 16.4587 30.6644 16.4451 31.0995C16.4315 31.5273 16.0893 31.8539 15.6606 31.8466V31.8476Z" fill="#EC526E"/>
</g>
<defs>
<clipPath id="clip0_6411_8340">
<rect width="40" height="40" fill="white" transform="translate(0.5 0.5)"/>
</clipPath>
</defs>
</svg>
