<svg width="41" height="40" viewBox="0 0 41 40" fill="none" xmlns="http://www.w3.org/2000/svg">
<path d="M3.83594 20H20.5026" stroke="#F5A732" stroke-width="1.6" stroke-linecap="round" stroke-linejoin="round"/>
<path d="M15.5 6.66699V33.3337" stroke="#F5A732" stroke-width="1.6" stroke-linecap="round" stroke-linejoin="round"/>
<path d="M5.5 15L10.5 20L5.5 25" stroke="#F5A732" stroke-width="1.6" stroke-linecap="round" stroke-linejoin="round"/>
<path d="M20.5 10L15.5 15L10.5 10" stroke="#F5A732" stroke-width="1.6" stroke-linecap="round" stroke-linejoin="round"/>
<path d="M10.5 30L15.5 25L18 27.5" stroke="#F5A732" stroke-width="1.6" stroke-linecap="round" stroke-linejoin="round"/>
<path d="M33.8359 6.66634V24.233C35.1069 24.9668 36.1002 26.0994 36.6618 27.4553C37.2234 28.8111 37.3219 30.3144 36.9421 31.732C36.5623 33.1495 35.7253 34.4021 34.561 35.2955C33.3967 36.1889 31.9702 36.6732 30.5026 36.6732C29.035 36.6732 27.6085 36.1889 26.4442 35.2955C25.2799 34.4021 24.4429 33.1495 24.0631 31.732C23.6833 30.3144 23.7818 28.8111 24.3434 27.4553C24.905 26.0994 25.8983 24.9668 27.1693 24.233V6.66634C27.1693 5.78229 27.5205 4.93444 28.1456 4.30932C28.7707 3.6842 29.6186 3.33301 30.5026 3.33301C31.3867 3.33301 32.2345 3.6842 32.8596 4.30932C33.4848 4.93444 33.8359 5.78229 33.8359 6.66634Z" stroke="#F5A732" stroke-width="1.6" stroke-linecap="round" stroke-linejoin="round"/>
</svg>
