<svg width="39" height="34" viewBox="0 0 39 34" fill="none" xmlns="http://www.w3.org/2000/svg">
<path id="Vector" d="M34.5587 19.0603C35.946 17.3081 37.1115 15.6063 37.7132 13.7615C38.3165 11.9116 38.3508 9.92475 37.4895 7.608C35.0067 0.928244 26.506 -1.33847 21.0702 3.36007C20.8413 3.55746 20.5928 3.83193 20.3494 4.10081C20.3131 4.14092 20.2769 4.18092 20.2409 4.22051C19.958 4.53151 19.6884 4.81647 19.4524 4.97882L19.4522 4.97894C19.4288 4.99513 19.4104 5.01231 19.3988 5.02313C16.325 0.737874 10.2815 -0.363051 5.78194 2.39813C1.86301 4.80293 -0.225593 9.81073 1.40593 14.243L1.40594 14.243C2.03777 15.9585 3.24118 17.5013 4.36562 18.9429C4.54152 19.1684 4.71548 19.3915 4.88502 19.6123C4.34412 21.7327 6.0238 23.6878 8.21616 23.3158C8.21422 23.321 8.21225 23.3263 8.21034 23.3317C8.19812 23.3663 8.18562 23.4115 8.18551 23.4644C8.17944 24.5521 8.52866 25.4278 9.16903 25.9855C9.77579 26.514 10.6265 26.7418 11.6373 26.6125C11.3591 28.619 13.1373 30.2347 15.1166 29.8787C14.8434 32.1948 17.327 33.9438 19.45 32.7278L19.45 32.7278C19.591 32.6469 19.7897 32.4898 20.0093 32.2989C20.2312 32.1061 20.4816 31.8725 20.728 31.6332C21.2196 31.1556 21.7015 30.6491 21.9129 30.3916L21.9129 30.3915C22.0901 30.1753 22.2675 29.9112 22.3861 29.6426C23.1231 29.7244 23.7562 29.7761 24.4879 29.4144C24.8104 29.2551 25.1691 28.9524 25.4601 28.6058C25.7498 28.2606 25.9872 27.8543 26.0455 27.4815L26.0456 27.4814L34.4607 18.9827M34.5587 19.0603L34.4607 18.9827M34.5587 19.0603C34.5587 19.0602 34.5587 19.0602 34.5587 19.0602L34.4607 18.9827M34.5587 19.0603C34.3763 19.2907 34.1181 19.566 33.8598 19.8413C33.8062 19.8984 33.7527 19.9555 33.6998 20.0122C33.3868 20.3477 33.0997 20.667 32.9494 20.9088L32.8433 20.8428C33.0285 20.5448 33.4039 20.1445 33.77 19.7543C34.0283 19.479 34.2819 19.2086 34.4607 18.9827M24.4945 25.5424L24.4945 25.5424C23.689 24.5651 22.6942 23.6362 21.6833 22.7023C21.6374 22.6598 21.5914 22.6174 21.5454 22.5749C20.5826 21.6859 19.6128 20.7905 18.7993 19.8508C18.6996 19.7447 18.6373 19.6192 18.6241 19.4838C18.6108 19.347 18.6487 19.2105 18.732 19.0862L18.747 19.0639L18.7698 19.0497C18.9611 18.9306 19.1345 18.9097 19.3004 18.963C19.4537 19.0122 19.5885 19.1222 19.7125 19.2267L19.7126 19.2267C20.0941 19.5486 20.5358 20.0105 20.948 20.4415C21.1546 20.6575 21.3537 20.8657 21.5342 21.0448C21.5343 21.0448 21.5343 21.0448 21.5343 21.0449L21.4463 21.1336C21.9076 21.5905 22.3839 22.1 22.8663 22.616C23.6785 23.4848 24.5079 24.3721 25.3124 25.0581C27.2125 26.6786 29.7659 24.3227 28.1041 22.245L24.4945 25.5424ZM24.4945 25.5424C25.1501 26.3375 25.1365 27.2276 24.7343 27.8469C24.3447 28.4466 23.58 28.8092 22.6536 28.578C22.6506 26.7683 21.0872 25.3031 19.2667 25.6368C19.5294 23.6317 17.9451 22.032 15.9235 22.2502C16.0061 21.1448 15.6524 20.0084 14.6639 19.3712C14.5904 19.3237 14.3766 19.2171 14.1765 19.1252C14.0747 19.0784 13.9728 19.0338 13.8893 19.0005C13.8477 18.984 13.8092 18.9697 13.7768 18.9593C13.7503 18.9508 13.711 18.939 13.6764 18.939H12.5375C12.9506 16.8262 10.8977 15.0395 8.82534 15.6846L8.82531 15.6846C8.56513 15.7657 8.27495 15.9404 7.9795 16.1603C7.68223 16.3816 7.37143 16.6549 7.06941 16.9412C6.61518 17.3718 6.175 17.8375 5.8271 18.2055C5.71308 18.3261 5.60898 18.4362 5.51754 18.5312L5.51752 18.5312C5.49168 18.558 5.47099 18.5919 5.45613 18.6183C5.45484 18.6206 5.45357 18.6229 5.45229 18.6252C5.41283 18.5749 5.37312 18.5243 5.33319 18.4734C4.63868 17.588 3.87786 16.6182 3.24881 15.5865C2.54998 14.4403 2.02087 13.2288 1.92608 11.9876L1.92608 11.9876C1.44922 5.75408 6.89425 0.913276 13.0382 2.11753L13.0382 2.11753C15.2534 2.55152 17.3243 3.89105 18.6498 5.70873L14.2279 10.2973L14.2175 10.3081L14.21 10.3211C12.3574 13.495 16.0951 16.739 18.9704 14.4651L18.9761 14.4605L18.9813 14.4553L22.7605 10.6659L22.942 10.6276L31.4891 19.1445C32.9019 20.9911 30.5911 23.1607 28.8523 21.7109L22.6468 15.4944L22.6364 15.4839L22.6237 15.4762C22.3629 15.3163 22.0943 15.3821 21.9359 15.5626C21.7812 15.739 21.7381 16.0166 21.8882 16.2658L21.8963 16.2792L21.9074 16.2902L28.0109 22.3287L24.4945 25.5424ZM32.8371 19.4939C32.8481 19.4836 32.8598 19.4714 32.8729 19.4571C32.8785 19.451 32.8848 19.444 32.8916 19.4364C32.9061 19.4203 32.9225 19.402 32.9376 19.3864L32.9377 19.3863C33.7433 18.5543 34.6951 17.3102 35.4829 15.9843C36.2721 14.656 36.8883 13.2594 37.036 12.1209C37.555 8.11466 35.3292 4.76525 32.1955 3.07398C29.0617 1.3827 25.0378 1.3592 21.9694 3.98915L21.9693 3.98916C20.5896 5.17119 19.0338 6.78371 17.6242 8.24459C17.2403 8.64244 16.8673 9.02905 16.5116 9.39265C16.5116 9.39265 16.5116 9.39266 16.5116 9.39267L32.8371 19.4939ZM32.8371 19.4939C32.8067 19.3324 32.7447 19.185 32.6713 19.0486C32.6012 18.9185 32.5166 18.7918 32.4371 18.6728C32.4092 18.631 32.3819 18.5902 32.3561 18.5505L32.3489 18.5394L32.3395 18.53L23.1801 9.41201L23.1676 9.39963L23.1522 9.39115C22.8978 9.25074 22.6515 9.33831 22.4734 9.50018C21.7946 10.083 21.1479 10.7862 20.5077 11.4821C20.4766 11.516 20.4455 11.5498 20.4143 11.5836C19.7407 12.3156 19.0729 13.0329 18.3714 13.6042C17.2981 14.4783 15.7682 14.3574 15.0664 13.1343L32.8371 19.4939ZM11.9744 25.3766L11.9744 25.3765C12.0193 25.3523 12.0938 25.2989 12.195 25.2164C12.2941 25.1355 12.413 25.0315 12.5449 24.9111C12.8086 24.6704 13.1212 24.3665 13.4267 24.0557C13.7322 23.7448 14.0293 23.4281 14.2623 23.1616C14.3789 23.0283 14.4785 22.9086 14.5548 22.809C14.6331 22.7069 14.6806 22.6339 14.6997 22.5917C15.2961 21.2686 14.3235 19.8357 12.8944 19.9471C12.5633 19.973 12.1735 20.1421 11.9022 20.3475L11.9744 25.3766ZM11.9744 25.3766C10.1894 26.3409 8.38121 24.2368 9.6296 22.6158M11.9744 25.3766L9.6296 22.6158M9.6296 22.6158C9.80261 22.3916 10.2551 21.912 10.7273 21.4402C11.1996 20.9682 11.6783 20.5174 11.9021 20.3476L9.6296 22.6158ZM29.55 23.2088C29.5444 23.166 29.5379 23.1232 29.5304 23.0801C29.4868 23.0741 29.4432 23.0673 29.3997 23.0596C29.4079 23.1033 29.4151 23.1468 29.4213 23.1901C29.4641 23.1971 29.507 23.2033 29.55 23.2088ZM26.0449 26.3426C26.004 26.3343 25.9631 26.3252 25.9221 26.3153C25.9176 26.3563 25.9149 26.3985 25.9135 26.4418C25.955 26.4516 25.9965 26.4605 26.0378 26.4686C26.0387 26.4253 26.0409 26.3832 26.0449 26.3426ZM11.0671 19.6997L11.0444 19.7302C10.8714 19.9494 10.3993 20.4436 9.90823 20.9264C9.6521 21.1782 9.39349 21.4243 9.17391 21.6226C8.9511 21.8238 8.77695 21.968 8.6862 22.0237C6.9884 23.0639 5.094 21.1663 6.1372 19.4752L6.13723 19.4752C6.19755 19.3773 6.34701 19.1958 6.5529 18.9663C6.7561 18.7398 7.00715 18.4744 7.26391 18.2118C7.78059 17.6836 8.3098 17.178 8.5185 17.0221L8.51855 17.0221C9.42205 16.3465 10.4101 16.5439 10.999 17.141C11.5867 17.7369 11.7831 18.7386 11.0671 19.6997ZM17.4978 26.6466C17.3511 26.8045 17.1988 26.9606 17.0681 27.0936V27.0908L16.8536 27.3113C16.8277 27.3379 16.8009 27.3655 16.7734 27.3938C16.5269 27.6479 16.2187 27.9657 15.89 28.2411C15.5206 28.5507 15.1465 28.7882 14.8231 28.8353C13.3981 29.0422 12.2848 27.7352 12.7808 26.3812C12.824 26.2634 12.9556 26.0659 13.1524 25.8185C13.3455 25.5759 13.5905 25.2984 13.8465 25.0243C14.3601 24.4744 14.9086 23.9484 15.1607 23.7515C15.988 23.1059 16.932 23.2197 17.557 23.7156C18.1821 24.2116 18.4865 25.0877 18.0282 25.9862L18.1396 26.043L18.0282 25.9862C17.9918 26.0576 17.9214 26.1566 17.8257 26.2742C17.7312 26.3901 17.6171 26.5181 17.4978 26.6466ZM19.3385 26.6782L19.3386 26.6782C20.8289 26.4238 22.0133 27.7803 21.4436 29.1942L21.4435 29.1943C21.4243 29.242 21.3803 29.3163 21.3099 29.4153C21.2408 29.5122 21.1511 29.6261 21.0462 29.7515C20.8364 30.0022 20.5693 30.2943 20.2924 30.5803C20.0156 30.8663 19.7303 31.1449 19.4847 31.3685C19.2355 31.5954 19.0368 31.7568 18.9298 31.8172C17.3721 32.6968 15.594 31.1446 16.3085 29.4735L16.3086 29.4734C16.3222 29.4414 16.3592 29.3825 16.4236 29.2968C16.486 29.2138 16.568 29.1136 16.6646 29.0014C16.8575 28.7771 17.1047 28.5089 17.3601 28.2422C17.8737 27.7058 18.4089 27.187 18.5976 27.0418L18.5978 27.0416C18.6881 26.9718 18.8202 26.8892 18.9591 26.8191C19.0996 26.7482 19.2368 26.6955 19.3385 26.6782Z" fill="#EB526E" stroke="#EB526E" stroke-width="0.25"/>
</svg>
