<svg width="22" height="42" viewBox="0 0 22 42" fill="none" xmlns="http://www.w3.org/2000/svg">
<g id="Group 5055">
<path id="Vector" d="M5.66797 6.33338C5.66797 7.74788 6.22984 9.10444 7.22998 10.1046C8.23014 11.1049 9.58669 11.6668 11.001 11.6668C12.4153 11.6668 13.7719 11.1049 14.772 10.1046C15.7721 9.10444 16.3341 7.74788 16.3341 6.33338C16.3341 4.91888 15.7721 3.56232 14.772 2.56211C13.7719 1.56191 12.4153 1 11.001 1C9.58669 1 8.23014 1.56191 7.22998 2.56211C6.22984 3.56232 5.66797 4.91888 5.66797 6.33338Z" stroke="#EB526E" stroke-width="1.87494" stroke-linecap="round" stroke-linejoin="round"/>
<path id="Vector_2" d="M15.0006 41.0001L16.3338 27.6666H20.3336V23.6666C20.3343 22.1203 19.9507 20.5981 19.2171 19.237C18.4836 17.876 17.423 16.7186 16.1312 15.8691L11.0008 23.6666L5.87041 15.8691C4.5785 16.7186 3.51804 17.876 2.78446 19.237C2.0509 20.5981 1.66722 22.1203 1.66797 23.6666V27.6666H5.66775L7.00102 41.0001H15.0006Z" stroke="#EB526E" stroke-width="1.87494" stroke-linecap="round" stroke-linejoin="round"/>
<path id="Vector_3" d="M5.66775 6.3335C5.66775 6.3335 5.66775 13.0002 1.66797 13.0002" stroke="#EB526E" stroke-width="1.87494" stroke-linecap="round" stroke-linejoin="round"/>
<path id="Vector_4" d="M16.3359 6.33301C16.3359 6.33301 16.3359 12.9997 20.3357 12.9997" stroke="#EB526E" stroke-width="1.87494" stroke-linecap="round" stroke-linejoin="round"/>
</g>
</svg>
